# xmcd CD database file
#
# Track frame offsets:
#	150
#	13875
#	30890
#	44590
#
# Disc length: 819 seconds
#
# Revision: 0
# Processed by: cddbd v1.5PL3 Copyright (c) Steve Scherf et al.
# Submitted via: CDex 1.51
#
DISCID=28033104
DTITLE=真田アサミ、沢城みゆき、氷上恭子 - ミラクル☆ワンダーランド
DYEAR=2004
DGENRE=Anime
TTITLE0=ミラクル☆ワンダーランド
TTITLE1=ダイスキ
TTITLE2=ミラクル☆ワンダーランド ＊Karaoke
TTITLE3=ダイスキ ＊Karaoke
EXTD=YEAR: 2004/02/25
EXTT0=
EXTT1=
EXTT2=
EXTT3=
PLAYORDER=
